# xmcd
#
# Track frame offsets: 
#        150
#        17132
#        32977
#        41514
#        54038
#        67515
#        81595
#        93792
#        105155
#        116379
#        130417
#        142717
#        155948
#        169663
#        197905
#        213370
#
# Disc length: 2995 seconds
#
# Revision: 1
# Processed by: cddbd v1.5.2PL0 Copyright (c) Steve Scherf et al.
# Submitted via: ExactAudioCopy v0.99pb3
#
DISCID=ca0bb110
DTITLE=Johnny Cash - Prison Songs
DYEAR=2004
DGENRE=Country
TTITLE0=A Boy Named Sue
TTITLE1=I Walk The Line
TTITLE2=I Still Miss Someone
TTITLE3=Cocaine Blues
TTITLE4=25 Minutes To Go
TTITLE5=Jackson
TTITLE6=Give My Love To Rose
TTITLE7=Green, Green Grass Of Home
TTITLE8=The Long Black Veil
TTITLE9=Me And Bobby McGee
TTITLE10=Folsom Prison Blues
TTITLE11=San Quentin
TTITLE12=Orange Blossom Special
TTITLE13=Starkville City Jail
TTITLE14=Wanted Man
TTITLE15=(There'll Be) Peace In The Valley
EXTD=
EXTT0=
EXTT1=
EXTT2=
EXTT3=
EXTT4=
EXTT5=
EXTT6=
EXTT7=
EXTT8=
EXTT9=
EXTT10=
EXTT11=
EXTT12=
EXTT13=
EXTT14=
EXTT15=
PLAYORDER=
